<?xml version="1.0" encoding="UTF-8"?>
<svg width="284px" height="189px" viewBox="0 0 284 189" version="1.1" xmlns="http://www.w3.org/2000/svg" xmlns:xlink="http://www.w3.org/1999/xlink">
    <title>Helloguru_02</title>
    <defs>
        <polygon id="path-1" points="0.06 0.03 174.739 0.03 174.739 86.815 0.06 86.815"></polygon>
    </defs>
    <g id="Helloguru_02" stroke="none" stroke-width="1" fill="none" fill-rule="evenodd">
        <path d="M272.04,150.97 C272.04,149.727 272.04,148.484 272.04,147.24 C272.958,147.24 273.876,147.24 274.794,147.24 C275.298,147.24 275.75,147.416 276.149,147.771 C276.548,148.127 276.751,148.586 276.751,149.148 C276.751,149.682 276.548,150.118 276.149,150.459 C275.75,150.801 275.298,150.97 274.794,150.97 C273.876,150.97 272.958,150.97 272.04,150.97 Z M275.684,152.348 C276.186,152.348 276.772,152.074 277.437,151.527 C278.105,150.978 278.438,150.187 278.438,149.148 C278.438,148.201 278.067,147.416 277.327,146.794 C276.586,146.172 275.744,145.862 274.794,145.862 C273.328,145.862 271.861,145.862 270.396,145.862 C270.396,149.461 270.396,153.059 270.396,156.658 C270.943,156.658 271.492,156.658 272.04,156.658 C272.04,155.236 272.04,153.814 272.04,152.393 C272.618,152.393 273.196,152.393 273.775,152.393 C274.708,153.814 275.641,155.236 276.574,156.658 C277.24,156.658 277.905,156.658 278.571,156.658 C277.609,155.221 276.647,153.785 275.684,152.348 L275.684,152.348 Z" id="Fill-1" fill="#FFFFFF"></path>
        <path d="M279.594,156.79 C278.052,158.33 276.2,159.102 274.04,159.102 C271.878,159.102 270.026,158.33 268.487,156.79 C266.945,155.251 266.175,153.399 266.175,151.236 C266.175,149.046 266.939,147.186 268.465,145.66 C269.988,144.136 271.846,143.373 274.04,143.373 C276.232,143.373 278.09,144.136 279.616,145.66 C281.139,147.186 281.902,149.046 281.902,151.236 C281.902,153.399 281.133,155.251 279.594,156.79 Z M280.724,144.551 C278.904,142.728 276.675,141.818 274.04,141.818 C271.431,141.818 269.211,142.736 267.375,144.573 C265.539,146.409 264.62,148.631 264.62,151.236 C264.62,153.844 265.539,156.065 267.375,157.902 C269.211,159.738 271.431,160.656 274.04,160.656 C276.646,160.656 278.865,159.738 280.701,157.902 C282.538,156.065 283.457,153.844 283.457,151.236 C283.457,148.602 282.548,146.371 280.724,144.551 L280.724,144.551 Z" id="Fill-2" fill="#FFFFFF"></path>
        <path d="M255.395,61.782 C253.323,64.167 250.445,65.358 246.757,65.358 C243.157,65.358 240.324,64.167 238.256,61.782 C236.186,59.4 235.151,56.316 235.151,52.537 C235.151,48.849 236.186,45.813 238.256,43.429 C240.324,41.046 243.157,39.852 246.757,39.852 C250.445,39.852 253.323,41.046 255.395,43.429 C257.463,45.813 258.498,48.849 258.498,52.537 C258.498,56.316 257.463,59.4 255.395,61.782 Z M273.479,28.315 C266.819,21.701 257.912,18.395 246.757,18.395 C235.601,18.395 226.717,21.701 220.105,28.315 C213.491,34.927 210.187,43.003 210.187,52.537 C210.187,62.075 213.491,70.172 220.105,76.828 C226.717,83.488 235.601,86.815 246.757,86.815 C257.912,86.815 266.819,83.488 273.479,76.828 C280.134,70.172 283.464,62.075 283.464,52.537 C283.464,43.003 280.134,34.927 273.479,28.315 L273.479,28.315 Z" id="Fill-3" fill="#FFFFFF"></path>
        <path d="M204.856,72.085 C204.856,48.067 204.856,24.049 204.856,0.03 C201.542,0.03 198.228,0.03 194.913,0.03 C186.989,0.03 180.566,6.454 180.566,14.376 C180.566,37.946 180.566,61.516 180.566,85.086 C184.329,85.086 188.092,85.086 191.856,85.086 C199.036,85.086 204.856,79.265 204.856,72.085" id="Fill-4" fill="#FFFFFF"></path>
        <g id="Group-8">
            <mask id="mask-2" fill="white">
                <use xlink:href="#path-1"></use>
            </mask>
            <g id="Clip-6"></g>
            <path d="M160.393,0.03 C157.078,0.03 153.763,0.03 150.449,0.03 C150.449,28.382 150.449,56.734 150.449,85.086 C154.212,85.086 157.975,85.086 161.739,85.086 C168.918,85.086 174.739,79.265 174.739,72.085 C174.739,52.849 174.739,33.613 174.739,14.377 C174.739,6.454 168.316,0.03 160.393,0.03" id="Fill-5" fill="#FFFFFF" mask="url(#mask-2)"></path>
            <path d="M99.627,44.711 C101.065,39.493 104.62,36.883 110.288,36.883 C116.225,36.883 119.822,39.493 121.084,44.711 C113.931,44.711 106.779,44.711 99.627,44.711 Z M144.161,55.102 C144.161,43.857 140.965,34.926 134.58,28.315 C128.19,21.701 120.093,18.395 110.288,18.395 C99.94,18.395 91.439,21.681 84.783,28.247 C81.142,31.838 78.497,35.885 76.847,40.39 C76.557,41.184 75.381,40.975 75.381,40.131 C75.381,39.633 75.381,39.135 75.381,38.638 C75.381,32.612 73.559,27.729 69.915,23.996 C66.272,20.263 60.85,18.395 53.653,18.395 C44.026,18.395 36.56,21.411 31.253,27.438 C31.253,22.635 31.253,17.833 31.253,13.03 C31.253,5.851 25.433,0.03 18.253,0.03 C12.169,0.03 6.084,0.03 0,0.03 C0,4.009 0,7.988 0,11.967 C0,15.81 3.117,18.925 6.961,18.923 C6.961,36.643 6.961,54.364 6.961,72.086 C6.961,79.265 12.781,85.086 19.962,85.086 C23.726,85.086 27.489,85.086 31.253,85.086 C31.253,71.717 31.253,58.349 31.253,44.98 C34.311,41.563 37.774,39.852 41.643,39.852 C47.94,39.852 51.09,42.868 51.09,48.894 C51.09,56.625 51.09,64.355 51.09,72.086 C51.09,79.265 56.911,85.086 64.09,85.086 C67.854,85.086 71.618,85.086 75.381,85.086 C75.381,78.478 75.381,71.869 75.381,65.261 C75.381,64.455 76.506,64.264 76.773,65.024 C78.467,69.852 81.249,74.012 85.119,77.503 C92.003,83.711 100.661,86.815 111.099,86.815 C116.314,86.815 121.487,86.117 126.617,84.723 C131.745,83.329 135.838,81.328 138.898,78.718 C135.569,73.725 132.24,68.732 128.911,63.738 C127.38,64.999 125.018,66.079 121.827,66.978 C118.631,67.877 116,68.327 113.932,68.327 C110.153,68.327 107.049,67.518 104.62,65.898 C102.191,64.279 100.616,62.344 99.898,60.094 C114.652,60.094 129.406,60.094 144.161,60.094 C144.161,58.43 144.161,56.766 144.161,55.102 L144.161,55.102 Z" id="Fill-7" fill="#FFFFFF" mask="url(#mask-2)"></path>
        </g>
        <path d="M248.851,141.759 L248.851,141.759 C248.851,126.024 248.851,110.28 248.851,94.535 C245.069,94.535 241.287,94.535 237.504,94.535 C230.355,94.535 224.558,100.331 224.558,107.482 C224.559,116.345 224.559,125.209 224.559,134.063 C224.559,135.106 224.177,136.145 223.423,136.864 C220.661,139.501 217.622,140.819 214.303,140.819 C208.005,140.819 204.858,137.76 204.858,131.642 C204.858,123.594 204.858,115.538 204.858,107.482 C204.858,100.331 199.061,94.535 191.91,94.535 C188.129,94.535 184.347,94.535 180.566,94.535 C180.566,110.371 180.566,126.206 180.566,142.032 C180.566,147.97 182.365,152.828 185.963,156.607 C189.561,160.385 194.96,162.275 202.158,162.275 C211.693,162.275 219.162,159.305 224.558,153.368 C224.558,157.393 227.822,160.656 231.846,160.656 C239.835,160.656 247.824,160.656 255.813,160.656 C255.813,156.702 255.813,152.749 255.813,148.795 C255.813,148.767 255.813,148.739 255.813,148.712 C255.811,144.869 252.693,141.755 248.851,141.759" id="Fill-9" fill="#FFFFFF"></path>
        <path d="M150.448,94.535 C150.405,94.535 150.362,94.535 150.319,94.535 C146.537,94.535 142.755,94.535 138.973,94.535 C131.823,94.535 126.028,100.331 126.028,107.481 C126.028,116.887 126.028,126.293 126.028,135.69 C122.969,139.111 119.55,140.819 115.772,140.819 C109.473,140.819 106.325,137.76 106.325,131.642 C106.325,123.594 106.325,115.538 106.325,107.482 C106.325,100.331 100.528,94.535 93.379,94.535 C89.598,94.535 85.816,94.535 82.035,94.535 C82.035,110.371 82.035,126.206 82.035,142.033 C82.035,147.97 83.834,152.828 87.433,156.607 C91.03,160.385 96.428,162.275 103.626,162.275 C113.161,162.275 120.629,159.305 126.028,153.368 C126.099,157.413 129.4,160.656 133.444,160.656 C139.069,160.656 144.694,160.656 150.319,160.656 C150.361,148.092 150.402,135.528 150.443,122.973 C150.446,122.006 150.822,121.087 151.547,120.448 C154.57,117.779 162.066,113.675 174.739,117.652 C174.739,109.914 174.739,102.177 174.739,94.44 C171.14,94.44 159.291,94.561 150.448,103.482 C150.448,100.5 150.448,97.517 150.448,94.535" id="Fill-10" fill="#FFFFFF"></path>
        <path d="M51.089,132.322 C50.009,133.584 48.502,134.596 46.568,135.359 C44.632,136.125 42.811,136.507 41.102,136.507 C37.502,136.507 34.577,135.607 32.33,133.807 C30.079,132.009 28.957,129.218 28.957,125.44 C28.957,121.662 30.079,118.873 32.33,117.073 C34.577,115.274 37.502,114.374 41.102,114.374 C42.811,114.374 44.632,114.758 46.568,115.52 C48.502,116.286 50.009,117.299 51.089,118.556 C51.089,123.145 51.089,127.733 51.089,132.322 Z M57.971,94.535 C54.171,94.535 51.089,97.616 51.089,101.418 C46.319,95.75 40.203,92.916 32.734,92.916 C24.365,92.916 17.505,95.728 12.153,101.35 C6.801,106.974 4.124,115.004 4.124,125.44 C4.124,136.057 6.801,144.132 12.153,149.664 C17.505,155.198 24.365,157.964 32.734,157.964 C39.841,157.964 45.96,155.042 51.089,149.192 C51.089,151.304 51.089,153.417 51.089,155.53 C51.089,159.04 50.166,161.897 48.323,164.101 C46.477,166.304 44.543,167.697 42.518,168.283 C40.495,168.868 38.313,169.161 35.974,169.161 C27.785,169.161 21.306,166.776 16.539,162.01 C13.12,167.767 9.701,173.525 6.283,179.282 C14.468,185.761 24.365,189 35.974,189 C39.571,189 43.034,188.75 46.364,188.259 C49.693,187.762 53.179,186.773 56.823,185.289 C60.468,183.805 63.591,181.892 66.202,179.553 C68.811,177.213 70.993,173.974 72.75,169.837 C74.503,165.697 75.381,160.928 75.381,155.53 C75.381,135.198 75.381,114.866 75.381,94.535 C69.578,94.535 63.774,94.535 57.971,94.535 L57.971,94.535 Z" id="Fill-11" fill="#FFFFFF"></path>
    </g>
</svg>